name C:\Users\r0593348\3dpredictsim\Results\MidTarsalJoint\Fal_s1_bCst_PF_Natali2010_ls150_MT_k200_d020_MTP_T5_ig21.mot
datacolumns 128
datarows 4
range 0.56851043 0.60262106
endheader
time	pelvis_tilt	pelvis_list	pelvis_rotation	pelvis_tx	pelvis_ty	pelvis_tz	hip_flexion_l	hip_adduction_l	hip_rotation_l	hip_flexion_r	hip_adduction_r	hip_rotation_r	knee_angle_l	knee_angle_r	ankle_angle_l	ankle_angle_r	subtalar_angle_l	subtalar_angle_r	mtj_angle_l	mtj_angle_r	mtp_angle_l	mtp_angle_r	lumbar_extension	lumbar_bending	lumbar_rotation	arm_flex_l	arm_add_l	arm_rot_l	arm_flex_r	arm_add_r	arm_rot_r	elbow_flex_l	elbow_flex_r	pro_sup_l	pro_sup_r	glut_med1_l/activation	glut_med2_l/activation	glut_med3_l/activation	glut_min1_l/activation	glut_min2_l/activation	glut_min3_l/activation	semimem_l/activation	semiten_l/activation	bifemlh_l/activation	bifemsh_l/activation	sar_l/activation	add_long_l/activation	add_brev_l/activation	add_mag1_l/activation	add_mag2_l/activation	add_mag3_l/activation	tfl_l/activation	pect_l/activation	grac_l/activation	glut_max1_l/activation	glut_max2_l/activation	glut_max3_l/activation	iliacus_l/activation	psoas_l/activation	quad_fem_l/activation	gem_l/activation	peri_l/activation	rect_fem_l/activation	vas_med_l/activation	vas_int_l/activation	vas_lat_l/activation	med_gas_l/activation	lat_gas_l/activation	soleus_l/activation	tib_post_l/activation	flex_dig_l/activation	flex_hal_l/activation	tib_ant_l/activation	per_brev_l/activation	per_long_l/activation	per_tert_l/activation	ext_dig_l/activation	ext_hal_l/activation	ercspn_l/activation	intobl_l/activation	extobl_l/activation	glut_med1_r/activation	glut_med2_r/activation	glut_med3_r/activation	glut_min1_r/activation	glut_min2_r/activation	glut_min3_r/activation	semimem_r/activation	semiten_r/activation	bifemlh_r/activation	bifemsh_r/activation	sar_r/activation	add_long_r/activation	add_brev_r/activation	add_mag1_r/activation	add_mag2_r/activation	add_mag3_r/activation	tfl_r/activation	pect_r/activation	grac_r/activation	glut_max1_r/activation	glut_max2_r/activation	glut_max3_r/activation	iliacus_r/activation	psoas_r/activation	quad_fem_r/activation	gem_r/activation	peri_r/activation	rect_fem_r/activation	vas_med_r/activation	vas_int_r/activation	vas_lat_r/activation	med_gas_r/activation	lat_gas_r/activation	soleus_r/activation	tib_post_r/activation	flex_dig_r/activation	flex_hal_r/activation	tib_ant_r/activation	per_brev_r/activation	per_long_r/activation	per_tert_r/activation	ext_dig_r/activation	ext_hal_r/activation	ercspn_r/activation	intobl_r/activation	extobl_r/activation	
          0.56851043	         -2.93009325	          2.24362710	         -5.43242582	          0.71063804	          0.91840146	          0.00167107	         29.40463415	          3.49047115	         -2.23370445	        -16.72501665	         -1.20865674	          6.45832595	        -11.05275833	         -8.12331197	          5.36053426	         -2.83585865	         -5.07875584	          8.09036751	         -0.04251028	          7.14443228	         -0.83869501	          7.51272610	         -1.95558575	         -0.34016629	          2.07644470	         -4.14923111	        -13.45550526	          8.64841368	          5.56947056	        -13.45335091	         17.84033539	         15.06538362	         32.25296738	         86.51662706	         86.51662706	          0.05947479	          0.05947492	          0.05000031	          0.05947520	          0.05947514	          0.05010032	          0.14691036	          0.05967377	          0.22019134	          0.05000247	          0.05000064	          0.13819715	          0.28260839	          0.12021248	          0.14638784	          0.10483165	          0.05000021	          0.08349581	          0.11743287	          0.05000093	          0.08416879	          0.15391145	          0.05000283	          0.05000027	          0.16007621	          0.26711972	          0.13383625	          0.05000061	          0.11729239	          0.11560096	          0.10368661	          0.05442851	          0.05306272	          0.05599074	          0.05000004	          0.05000063	          0.05000034	          0.50928167	          0.25321466	          0.16860901	          0.22638490	          0.45156894	          0.20272003	          0.05944690	          0.11776712	          0.10394203	          0.25395627	          0.10249538	          0.08415252	          0.28297386	          0.19999076	          0.11763052	          0.05000139	          0.05000039	          0.05000026	          0.05698158	          0.11577282	          0.05941308	          0.05000220	          0.05000119	          0.05000209	          0.05000077	          0.30842671	          0.07083344	          0.05000358	          0.05000425	          0.05000251	          0.05000202	          0.44022559	          0.64752731	          0.05000083	          0.05000092	          0.05001369	          0.25552823	          0.05000111	          0.05000110	          0.05000097	          0.30123870	          0.41439621	          0.35616234	          0.27503899	          0.26264203	          0.34571429	          0.05000007	          0.05944660	          0.11859264	          0.05000044	          0.05000011	          0.05000039	          0.05000004	          0.05000009	          0.05000028	
          0.57988064	         -2.92899400	          2.32547339	         -5.72886801	          0.72768767	          0.91737464	          0.00148480	         28.77355636	          3.82180534	         -1.99895012	        -16.69493460	         -1.51149760	          6.26590793	        -11.27520334	         -9.87013009	          4.67422079	         -3.29274009	         -5.44363132	          9.02867295	         -0.00691448	          6.26072048	         -0.84251512	          9.15910713	         -1.75803120	         -0.52626124	          2.14289379	         -5.04274815	        -13.45304225	          8.42459793	          5.29974211	        -13.46023797	         18.09898918	         14.67797229	         33.46739231	         86.51662706	         86.51662706	          0.05000002	          0.05000009	          0.09734786	          0.05000009	          0.05000011	          0.05000016	          0.12350576	          0.05016709	          0.18511204	          0.05000022	          0.05263949	          0.11618136	          0.25869156	          0.29951388	          0.19936500	          0.11233275	          0.05000098	          0.07071743	          0.12222811	          0.05003206	          0.09425714	          0.12939189	          0.05000027	          0.07073872	          0.43972650	          0.22456413	          0.11251447	          0.05947994	          0.13348235	          0.13372773	          0.11571205	          0.05000080	          0.05949053	          0.05000008	          0.05947787	          0.05007610	          0.05947653	          0.44087360	          0.25853578	          0.20281632	          0.19031905	          0.41135606	          0.17042421	          0.05000001	          0.09900529	          0.08738272	          0.21349782	          0.08616659	          0.07074608	          0.23789273	          0.16812976	          0.09889057	          0.05000420	          0.05000109	          0.05000128	          0.05000056	          0.09732933	          0.13000267	          0.05021037	          0.05947714	          0.05942413	          0.05947093	          0.25929061	          0.05956682	          0.05945433	          0.05000440	          0.05000317	          0.05000390	          0.37009219	          0.61151682	          0.05000973	          0.05948565	          0.05949773	          0.21481944	          0.12008671	          0.12627776	          0.14646995	          0.25324746	          0.34837761	          0.32177261	          0.24665882	          0.22080111	          0.29065117	          0.05000014	          0.05000019	          0.13282415	          0.05000032	          0.05000011	          0.05000054	          0.05319223	          0.06050446	          0.05947512	
          0.59125085	         -2.92407899	          2.41015777	         -5.99351326	          0.74505076	          0.91644325	          0.00131444	         28.03312329	          4.07177449	         -1.74054957	        -16.60579879	         -1.81542696	          6.06785676	        -11.81138551	        -11.70035698	          4.10438925	         -3.87358704	         -5.82667161	          9.92672444	         -0.22048001	          5.16998614	         -0.86581399	         10.97241754	         -1.53869794	         -0.72451376	          2.19781081	         -5.97073457	        -13.45643231	          8.24513637	          4.94498357	        -13.46336211	         18.27214745	         14.35732069	         34.67128992	         86.51662706	         86.51662706	          0.22290424	          0.21841587	          0.26376685	          0.31927706	          0.21259949	          0.19013928	          0.10786382	          0.06231044	          0.15562145	          0.08061035	          0.05000140	          0.09767226	          0.21747876	          0.25179758	          0.16760385	          0.11257522	          0.05000080	          0.05947364	          0.10275776	          0.05000126	          0.11515259	          0.10877851	          0.05520961	          0.05946929	          0.36967241	          0.18878833	          0.20264111	          0.05000405	          0.11221698	          0.11242328	          0.09727771	          0.05000171	          0.05001324	          0.05003592	          0.05000235	          0.05000077	          0.05000170	          0.52015642	          0.31764728	          0.17050710	          0.30918923	          0.48676079	          0.14327465	          0.05664563	          0.12558899	          0.07346152	          0.31109509	          0.07243920	          0.05947557	          0.30325636	          0.14134476	          0.08313616	          0.05000274	          0.05000041	          0.05000035	          0.05000037	          0.08182465	          0.10929166	          0.05000109	          0.05000216	          0.05000193	          0.05000142	          0.27021731	          0.05007818	          0.05000139	          0.05001842	          0.05000796	          0.05000355	          0.31113236	          0.58581429	          0.05000095	          0.05000980	          0.05001927	          0.18059598	          0.11353093	          0.10616581	          0.12313757	          0.21290184	          0.29287654	          0.27051005	          0.20736315	          0.18562501	          0.24434710	          0.05000003	          0.09183733	          0.15321073	          0.05000025	          0.05000007	          0.05000026	          0.05000005	          0.05086532	          0.05000011	
          0.60262106	         -2.91763432	          2.48744841	         -6.22035428	          0.76252359	          0.91565036	          0.00112038	         27.24635827	          4.29979404	         -1.48437519	        -16.41940652	         -2.10870829	          5.88057018	        -12.31122044	        -13.65484245	          3.54422945	         -4.59488515	         -6.21105460	         10.78750169	         -0.22845249	          3.91309213	         -0.81579413	         12.88182230	         -1.32008359	         -0.92419784	          2.24496442	         -6.88748688	        -13.45911861	          8.10692809	          4.53810923	        -13.47112717	         18.38604875	         14.08475013	         35.84570043	         86.51662706	         86.51662706	          0.31584935	          0.30993257	          0.33546666	          0.26841236	          0.17873114	          0.18012662	          0.09068002	          0.07207478	          0.13082903	          0.06776852	          0.05000147	          0.08211186	          0.18283164	          0.21168329	          0.14090352	          0.14846535	          0.05000067	          0.05000156	          0.08638788	          0.19630984	          0.17282834	          0.14321637	          0.05000012	          0.05000014	          0.31077889	          0.15871202	          0.17035819	          0.05000012	          0.10695097	          0.12847957	          0.08756284	          0.05000005	          0.05000010	          0.05000001	          0.05000003	          0.05000018	          0.05000018	          0.57808934	          0.29995813	          0.17026996	          0.54364228	          0.52472931	          0.25600747	          0.07863825	          0.10558105	          0.06175816	          0.29161691	          0.06089875	          0.05000064	          0.25992820	          0.11882686	          0.06989160	          0.05000328	          0.05000040	          0.05000035	          0.05000040	          0.06879039	          0.10247268	          0.05000080	          0.05000107	          0.05000227	          0.05000103	          0.22716922	          0.05001394	          0.05000194	          0.05000460	          0.05000274	          0.05000172	          0.26156509	          0.54869988	          0.05000056	          0.05000177	          0.05000041	          0.15182472	          0.09544736	          0.14099214	          0.12582701	          0.17898379	          0.24621750	          0.22741426	          0.17432758	          0.15605273	          0.20541959	          0.05000028	          0.09156980	          0.15978450	          0.05000041	          0.09051361	          0.05000063	          0.06936084	          0.05000002	          0.05000007	
